<svg xmlns="http://www.w3.org/2000/svg" data-name="Layer 1" viewBox="0 0 53 53"><path d="M49.5 44.74H46.38v-27a1 1 0 0 0-1-1H39.33a1 1 0 0 0-1 1v27H34V23.3a1 1 0 0 0-1-1H27a1 1 0 0 0-1 1V44.74h-4.3V30.86a1 1 0 0 0-1-1h-6a1 1 0 0 0-1 1V44.74H10.41V11.07a1 1 0 0 0-2 0V45.74a1 1 0 0 0 1 1h5.14l.1 0h6l.1 0h6.1l.1 0h6l.1 0h6.11l.09 0h6.05l.09 0h4a1 1 0 0 0 0-2zm-9.17-26h4.05v26H40.33zM28 24.3h4V44.74H28zM15.65 31.86h4V44.74h-4zM3.5 14.89H5.3a1 1 0 1 0 0-2H3.5a1 1 0 0 0 0 2zM3.5 20.88H5.3a1 1 0 1 0 0-2H3.5a1 1 0 0 0 0 2zM3.5 26.86H5.3a1 1 0 1 0 0-2H3.5a1 1 0 0 0 0 2zM3.5 32.85H5.3a1 1 0 0 0 0-2H3.5a1 1 0 0 0 0 2zM3.5 38.84H5.3a1 1 0 0 0 0-2H3.5a1 1 0 0 0 0 2zM3.5 44.83H5.3a1 1 0 0 0 0-2H3.5a1 1 0 0 0 0 2z"/><path d="M15.12,21.88a1,1,0,0,0-.79,1.18,1,1,0,0,0,1,.81l.19,0c.63-.13,14.58-3,24.32-13.52l-.07.93a1,1,0,0,0,.93,1.06h.07a1,1,0,0,0,1-.94L42,7.31a1,1,0,0,0-1.16-1.06l-4,.66a1,1,0,1,0,.32,2l1.44-.23C29.31,19,15.27,21.86,15.12,21.88Z"/></svg>