<svg xmlns="http://www.w3.org/2000/svg" width="32" height="32" enable-background="new 0 0 32 32" viewBox="0 0 32 32"><path fill="#263238" d="M29.5 29h-27C1.673 29 1 28.327 1 27.5v-6C1 21.224 1.224 21 1.5 21S2 21.224 2 21.5v6C2 27.775 2.225 28 2.5 28h27c.275 0 .5-.225.5-.5v-6c0-.276.224-.5.5-.5s.5.224.5.5v6C31 28.327 30.327 29 29.5 29zM21.5 6C21.224 6 21 5.776 21 5.5v-2C21 3.225 20.775 3 20.5 3h-9C11.225 3 11 3.225 11 3.5v2C11 5.776 10.776 6 10.5 6S10 5.776 10 5.5v-2C10 2.673 10.673 2 11.5 2h9C21.327 2 22 2.673 22 3.5v2C22 5.776 21.776 6 21.5 6zM27.5 21h-2c-.276 0-.5-.224-.5-.5s.224-.5.5-.5h2c1.379 0 2.5-1.121 2.5-2.5V8H3.5C3.224 8 3 7.776 3 7.5S3.224 7 3.5 7h27C30.776 7 31 7.224 31 7.5v10C31 19.43 29.43 21 27.5 21z"/><path fill="#263238" d="M6.5 21h-2C2.57 21 1 19.43 1 17.5v-10C1 7.224 1.224 7 1.5 7S2 7.224 2 7.5v10C2 18.879 3.121 20 4.5 20h2C6.776 20 7 20.224 7 20.5S6.776 21 6.5 21zM19.5 21h-7c-.276 0-.5-.224-.5-.5s.224-.5.5-.5h7c.276 0 .5.224.5.5S19.776 21 19.5 21zM9.5 23C8.673 23 8 22.327 8 21.5v-3C8 18.224 8.224 18 8.5 18h2c.276 0 .5.224.5.5v3C11 22.327 10.327 23 9.5 23zM9 19v2.5C9 21.775 9.225 22 9.5 22s.5-.225.5-.5V19H9zM22.5 23c-.827 0-1.5-.673-1.5-1.5v-3c0-.276.224-.5.5-.5h2c.276 0 .5.224.5.5v3C24 22.327 23.327 23 22.5 23zM22 19v2.5c0 .275.225.5.5.5s.5-.225.5-.5V19H22z"/></svg>