<svg xmlns="http://www.w3.org/2000/svg" enable-background="new 0 0 66 66" viewBox="0 0 66 66"><path d="M45.3 35c-.1.2-2.9 3.9-6.5 3.9-2.6 0-4.7-1.8-5.8-3-1.1 1.1-3.2 3-5.8 3-1.9 0-3.6-1-4.8-2.1v9.7c0 .5-.4 1-1 1s-1-.4-1-1c0-12.4-.1-12.3.2-12.7.1-.2 2.9-3.9 6.5-3.9 2.6 0 4.7 1.8 5.8 3 1.1-1.1 3.2-3 5.8-3 3.6 0 6.4 3.7 6.5 3.9C45.6 34.2 45.6 34.7 45.3 35zM2.9 5.4v36c4.5-2.2 8.9-16 9.3-35.6C9.3 8.8 6 8.4 2.9 5.4zM2.9 43.6V64h6.7C9.6 52 7.7 46.5 5.8 43 4.8 43.3 3.9 43.5 2.9 43.6z"/><path d="M23.6 5.5c-2.9 2.6-6.1 2.8-9.3-.1-.3 14.3-2.9 29-7.5 35.2C15.9 36.6 22.9 22.4 23.6 5.5zM8.9 41.7c-.4.2-.8.4-1.3.6 2 3.7 3.9 9.5 4 21.7h9.6C20.7 50.9 11.1 43.3 8.9 41.7zM59.3 40.6c-4.6-6.2-7.2-20.8-7.5-35.1-3 2.8-6.2 2.9-9.3 0C43.1 22.4 50.1 36.6 59.3 40.6zM57.1 41.7c-2.3 1.6-11.9 9.2-12.3 22.3h9.6c.1-12.2 2-18 4-21.7C58 42.1 57.5 41.9 57.1 41.7z"/><path d="M53.7 5.4c.4 19.8 4.8 33.8 9.3 36V5.2C60 7.8 56.7 8.1 53.7 5.4zM56.3 64h6.7V43.6c-1-.1-1.9-.3-2.8-.6C58.3 46.5 56.4 52 56.3 64zM64 2H2c-.5 0-1 .4-1 1s.4 1 1 1H64c.5 0 1-.4 1-1S64.6 2 64 2z"/></svg>