<svg xmlns="http://www.w3.org/2000/svg" fill-rule="evenodd" stroke-linejoin="round" stroke-miterlimit="1.414" clip-rule="evenodd" viewBox="0 0 32 32"><rect width="32" height="32" fill="none"/><path d="M16.999,6.995l0,0.999c-0.018,0.886 -1.451,1.391 -1.904,0.423c-0.061,-0.131 -0.091,-0.276 -0.094,-0.423l0,-0.999l-2.996,0c-0.769,-0.037 -1.284,-1.042 -0.755,-1.653c0.182,-0.21 0.329,-0.324 0.755,-0.345c0.998,0 1.997,-0.003 2.996,-0.009l0,-0.989c0.003,-0.163 0.019,-0.216 0.05,-0.313c0.132,-0.401 0.527,-0.686 0.969,-0.686c0.533,0.021 0.967,0.42 0.979,0.999l0,0.977c1.997,-0.012 3.995,-0.023 5.993,-0.013l0,-0.964c0.01,-0.534 0.4,-0.976 0.979,-0.999c0.013,0 0.026,0 0.039,0c0.534,0.021 0.968,0.42 0.979,0.999l0,0.982c0.358,0.005 0.716,0.011 1.073,0.017c1.531,0.048 2.893,1.365 2.922,2.959c0.038,6.017 0.038,12.035 0,18.053c-0.028,1.545 -1.365,2.929 -2.959,2.959c-6.683,0.041 -13.367,0.041 -20.05,0c-1.539,-0.029 -2.929,-1.339 -2.959,-2.959c-0.038,-6.018 -0.038,-12.036 0,-18.053c0.028,-1.556 1.361,-2.949 2.993,-2.96l1.002,0l0,-0.998c0.003,-0.163 0.018,-0.216 0.05,-0.313c0.132,-0.401 0.527,-0.686 0.968,-0.686c0.534,0.021 0.968,0.42 0.979,0.999l0,3.995c-0.017,0.885 -1.409,1.381 -1.886,0.459c-0.073,-0.141 -0.108,-0.298 -0.111,-0.459l0,-1.003c-0.342,-0.002 -0.683,-0.002 -1.024,0.004c-0.507,0.016 -0.958,0.46 -0.974,0.974c-0.111,6.008 -0.112,12.02 0,18.028c0.016,0.508 0.46,0.958 0.974,0.974c6.674,0.124 13.352,0.124 20.026,0c0.507,-0.016 0.958,-0.46 0.974,-0.974c0.111,-6.008 0.111,-12.02 0,-18.028c-0.016,-0.517 -0.477,-0.971 -1.002,-0.974l-0.996,0l0,0.999c-0.017,0.877 -1.413,1.372 -1.886,0.459c-0.072,-0.141 -0.108,-0.298 -0.111,-0.459l0,-0.999l-5.993,0Zm-8.99,15.981c0.552,0 0.999,0.448 0.999,0.999c0,0.551 -0.447,0.999 -0.999,0.999c-0.551,0 -0.998,-0.448 -0.998,-0.999c0,-0.551 0.447,-0.999 0.998,-0.999Zm3.996,0c0.551,0 0.998,0.448 0.998,0.999c0,0.551 -0.447,0.999 -0.998,0.999c-0.552,0 -0.999,-0.448 -0.999,-0.999c0,-0.551 0.447,-0.999 0.999,-0.999Zm3.995,0c0.551,0 0.999,0.448 0.999,0.999c0,0.551 -0.448,0.999 -0.999,0.999c-0.551,0 -0.999,-0.448 -0.999,-0.999c0,-0.551 0.448,-0.999 0.999,-0.999Zm-7.991,-3.995c0.552,0 0.999,0.447 0.999,0.999c0,0.551 -0.447,0.998 -0.999,0.998c-0.551,0 -0.998,-0.447 -0.998,-0.998c0,-0.552 0.447,-0.999 0.998,-0.999Zm3.996,0c0.551,0 0.998,0.447 0.998,0.999c0,0.551 -0.447,0.998 -0.998,0.998c-0.552,0 -0.999,-0.447 -0.999,-0.998c0,-0.552 0.447,-0.999 0.999,-0.999Zm3.995,0c0.551,0 0.999,0.447 0.999,0.999c0,0.551 -0.448,0.998 -0.999,0.998c-0.551,0 -0.999,-0.447 -0.999,-0.998c0,-0.552 0.448,-0.999 0.999,-0.999Zm3.995,0c0.551,0 0.999,0.447 0.999,0.999c0,0.551 -0.448,0.998 -0.999,0.998c-0.551,0 -0.999,-0.447 -0.999,-0.998c0,-0.552 0.448,-0.999 0.999,-0.999Zm3.995,0c0.552,0 0.999,0.447 0.999,0.999c0,0.551 -0.447,0.998 -0.999,0.998c-0.551,0 -0.998,-0.447 -0.998,-0.998c0,-0.552 0.447,-0.999 0.998,-0.999Zm-11.985,-3.995c0.551,0 0.998,0.447 0.998,0.998c0,0.552 -0.447,0.999 -0.998,0.999c-0.552,0 -0.999,-0.447 -0.999,-0.999c0,-0.551 0.447,-0.998 0.999,-0.998Zm3.995,0c0.551,0 0.999,0.447 0.999,0.998c0,0.552 -0.448,0.999 -0.999,0.999c-0.551,0 -0.999,-0.447 -0.999,-0.999c0,-0.551 0.448,-0.998 0.999,-0.998Zm3.995,0c0.551,0 0.999,0.447 0.999,0.998c0,0.552 -0.448,0.999 -0.999,0.999c-0.551,0 -0.999,-0.447 -0.999,-0.999c0,-0.551 0.448,-0.998 0.999,-0.998Zm3.995,0c0.552,0 0.999,0.447 0.999,0.998c0,0.552 -0.447,0.999 -0.999,0.999c-0.551,0 -0.998,-0.447 -0.998,-0.999c0,-0.551 0.447,-0.998 0.998,-0.998Z"/></svg>