<svg xmlns="http://www.w3.org/2000/svg" enable-background="new 0 0 48 48" viewBox="0 0 48 48"><path d="M42,18c0.6,0,1-0.4,1-1v-3h2c0.6,0,1-0.4,1-1V9c0-0.4-0.3-0.8-0.7-1l-21-6C24.1,2,23.9,2,23.7,2l-21,6   C2.3,8.2,2,8.6,2,9v4c0,0.6,0.4,1,1,1h2v3c0,0.6,0.4,1,1,1h1v18H6c-0.6,0-1,0.4-1,1v3H3c-0.6,0-1,0.4-1,1v4c0,0.6,0.4,1,1,1h42   c0.6,0,1-0.4,1-1v-4c0-0.6-0.4-1-1-1h-2v-3c0-0.6-0.4-1-1-1h-1V18H42z M4,9.8L24,4l20,5.7V12h-2H6H4V9.8z M41,14v2h-1h-4H26h-4H12   H8H7v-2H41z M27,36V18h8v18H27z M13,36V18h8v18H13z M23,18h2v18h-2V18z M9,18h2v18H9V18z M44,44H4v-2h2h36h2V44z M7,40v-2h1h4h10h4   h10h4h1v2H7z M39,36h-2V18h2V36z"/><circle cx="24" cy="8" r="2"/><circle cx="17" cy="9" r="1"/><circle cx="31" cy="9" r="1"/></svg>