<svg xmlns="http://www.w3.org/2000/svg" viewBox="0 0 32 32"><g data-name="Layer 2"><path d="M22,27.38a4,4,0,1,1,4-4A4,4,0,0,1,22,27.38Zm0-6a2,2,0,1,0,2,2A2,2,0,0,0,22,21.38Z"/><path d="M27.33,31H4.67A3.67,3.67,0,0,1,1,27.38V12.71A3.67,3.67,0,0,1,4.67,9H27.33A3.67,3.67,0,0,1,31,12.71V27.38A3.67,3.67,0,0,1,27.33,31ZM4.67,11A1.67,1.67,0,0,0,3,12.71V27.38A1.67,1.67,0,0,0,4.67,29H27.33A1.67,1.67,0,0,0,29,27.38V12.71A1.67,1.67,0,0,0,27.33,11Z"/><path d="M16,10.83a2.82,2.82,0,0,1-1.76-.62L6.16,3.74A1,1,0,0,1,6,2.33H6a1,1,0,0,1,1.41-.16l8.08,6.46a.82.82,0,0,0,1,0l8.08-6.46A1,1,0,0,1,26,2.33h0a1,1,0,0,1-.16,1.41L17.76,10.2A2.82,2.82,0,0,1,16,10.83Z"/><rect width="4" height="2" x="8" y="20.75" rx="1" ry="1"/><rect width="4" height="2" x="8" y="24.38" rx="1" ry="1"/><rect width="27.92" height="2" x="2.08" y="16"/></g></svg>