<svg xmlns="http://www.w3.org/2000/svg" enable-background="new 0 0 64 64" viewBox="0 0 64 64"><path d="M59.337,35.923l0.213-0.231c0.962-0.97,1.477-2.255,1.449-3.622c-0.027-1.373-0.599-2.642-1.598-3.563l-9.685-9.206
		L34.729,3.316c-0.378-0.402-1.011-0.423-1.413-0.045c-0.403,0.377-0.424,1.011-0.046,1.414l14.448,15.411
		c-3.13,4.452-7.833,6.937-9.482,7.707L14.722,3.308c-0.383-0.399-1.017-0.412-1.414-0.029c-0.398,0.382-0.411,1.015-0.029,1.414
		l23.501,24.48l-2.21,4.199C32.913,26.263,26.521,21,19,21c-8.822,0-16,7.178-16,16s7.178,16,16,16c0.127,0,0.254-0.01,0.382-0.013
		C19.141,53.638,19,54.332,19,55.056C19,58.333,21.667,61,24.944,61H34c1.335,0,2.591-0.521,3.563-1.493l1.215-1.316l0.516,0.516
		C39.488,58.902,39.744,59,40,59s0.512-0.098,0.707-0.293c0.391-0.391,0.391-1.023,0-1.414l-0.572-0.572l2.483-2.689l0.675,0.675
		C43.488,54.902,43.744,55,44,55s0.512-0.098,0.707-0.293c0.391-0.391,0.391-1.023,0-1.414l-0.732-0.732l4.883-5.289l0.435,0.435
		C49.488,47.902,49.744,48,50,48s0.512-0.098,0.707-0.293c0.391-0.391,0.391-1.023,0-1.414l-0.491-0.491l4.403-4.769l0.674,0.674
		C55.488,41.902,55.744,42,56,42s0.512-0.098,0.707-0.293c0.391-0.391,0.391-1.023,0-1.414l-0.73-0.73l2.003-2.169l0.314,0.314
		C58.488,37.902,58.744,38,59,38s0.512-0.098,0.707-0.293c0.391-0.391,0.391-1.023,0-1.414L59.337,35.923z M23.135,49.315L20,47.434
		v-3.867l4.106-2.464l4.904,2.832l-1.295,2.461c-0.294,0.559-0.748,1.003-1.313,1.285L23.135,49.315z M10.382,48.01l0.083-4.927
		l3.43-1.98L18,43.566v3.868l-4.235,2.541C12.541,49.479,11.406,48.814,10.382,48.01z M5,37c0-0.666,0.063-1.316,0.153-1.958
		l4.311-2.393L13,34.691v4.618l-3.536,2.042l-4.31-2.393C5.063,38.316,5,37.666,5,37z M13.765,24.025L18,26.566v3.868l-4.106,2.464
		l-3.43-1.98l-0.083-4.927C11.406,25.186,12.541,24.521,13.765,24.025z M27.619,25.982l-0.083,4.935l-3.43,1.98L20,30.434v-3.868
		l4.24-2.544C25.46,24.517,26.595,25.18,27.619,25.982z M32.969,36.065c0.006,0.082,0.039,0.153,0.063,0.228l-3.089,5.87L25,39.309
		v-4.618l3.536-2.042l4.315,2.395C32.899,35.382,32.946,35.72,32.969,36.065z M19,41.834l-4-2.4v-4.867l4-2.4l4,2.4v4.867L19,41.834
		z M32.215,32.404l-2.679-1.487l0.051-3.053C30.73,29.184,31.628,30.72,32.215,32.404z M21.635,23.253L19,24.834l-2.63-1.578
		C17.223,23.093,18.1,23,19,23C19.9,23,20.78,23.089,21.635,23.253z M8.413,27.867l0.051,3.05L5.792,32.4
		C6.379,30.721,7.272,29.187,8.413,27.867z M5.792,41.6l2.672,1.483l-0.051,3.05C7.272,44.813,6.379,43.279,5.792,41.6z M19,51
		c-0.9,0-1.777-0.093-2.63-0.256L19,49.166l2.177,1.306c-0.162,0.133-0.317,0.272-0.463,0.42C20.148,50.961,19.573,51,19,51z
		 M36.121,58.121C35.563,58.68,34.789,59,34,59h-9.056C22.77,59,21,57.23,21,55.056c0-1.504,0.835-2.855,2.181-3.527l4.114-2.059
		c0.942-0.47,1.699-1.211,2.189-2.143l0.611-1.161l1.457,0.729C31.696,46.966,31.849,47,31.999,47c0.367,0,0.72-0.202,0.896-0.553
		c0.247-0.494,0.047-1.095-0.447-1.342l-1.42-0.71l1.152-2.188l1.374,0.687C33.696,42.966,33.849,43,33.999,43
		c0.367,0,0.72-0.202,0.896-0.553c0.247-0.494,0.047-1.095-0.447-1.342l-1.337-0.668l1.151-2.188l1.291,0.645
		C35.696,38.966,35.849,39,35.999,39c0.367,0,0.72-0.202,0.896-0.553c0.247-0.494,0.047-1.095-0.447-1.342l-1.253-0.627l1.151-2.188
		l1.207,0.604C37.696,34.966,37.849,35,37.999,35c0.367,0,0.72-0.202,0.896-0.553c0.247-0.494,0.047-1.095-0.447-1.342l-1.17-0.585
		l1.441-2.737c1.428-0.623,6.772-3.197,10.445-8.249l8.659,8.23l-7.529,7.529c-0.391,0.391-0.391,1.023,0,1.414
		C50.488,38.902,50.744,39,51,39s0.512-0.098,0.707-0.293l7.215-7.215c0.046,0.201,0.073,0.408,0.077,0.619
		c0.017,0.824-0.295,1.599-0.878,2.182c-0.01,0.01-0.019,0.019-0.027,0.028L36.121,58.121z"/></svg>