<svg xmlns="http://www.w3.org/2000/svg" xmlns:xlink="http://www.w3.org/1999/xlink" width="512" zoomAndPan="magnify" viewBox="0 0 384 383.999986" height="512" preserveAspectRatio="xMidYMid meet" version="1.0"><defs><clipPath id="id1"><path d="M 48.578125 23.429688 L 137 23.429688 L 137 174 L 48.578125 174 Z M 48.578125 23.429688 " clip-rule="nonzero"/></clipPath><clipPath id="id2"><path d="M 48.578125 23.429688 L 147.578125 23.429688 L 147.578125 184.679688 L 48.578125 184.679688 Z M 48.578125 23.429688 " clip-rule="nonzero"/></clipPath><clipPath id="id3"><path d="M 48.578125 199.472656 L 137 199.472656 L 137 350 L 48.578125 350 Z M 48.578125 199.472656 " clip-rule="nonzero"/></clipPath><clipPath id="id4"><path d="M 48.578125 199.472656 L 147.578125 199.472656 L 147.578125 360.722656 L 48.578125 360.722656 Z M 48.578125 199.472656 " clip-rule="nonzero"/></clipPath><clipPath id="id5"><path d="M 166.765625 199.472656 L 255 199.472656 L 255 350 L 166.765625 350 Z M 166.765625 199.472656 " clip-rule="nonzero"/></clipPath><clipPath id="id6"><path d="M 166.765625 199.472656 L 265.765625 199.472656 L 265.765625 360.722656 L 166.765625 360.722656 Z M 166.765625 199.472656 " clip-rule="nonzero"/></clipPath><clipPath id="id7"><path d="M 179 274 L 330 274 L 330 275 L 179 275 Z M 179 274 " clip-rule="nonzero"/></clipPath><clipPath id="id8"><path d="M 254.871094 199.476562 L 335.484375 280.085938 L 254.871094 360.695312 L 174.261719 280.085938 Z M 254.871094 199.476562 " clip-rule="nonzero"/></clipPath><clipPath id="id9"><path d="M 179 205 L 330 205 L 330 356 L 179 356 Z M 179 205 " clip-rule="nonzero"/></clipPath><clipPath id="id10"><path d="M 254.871094 199.476562 L 335.484375 280.085938 L 254.871094 360.695312 L 174.261719 280.085938 Z M 254.871094 199.476562 " clip-rule="nonzero"/></clipPath><clipPath id="id11"><path d="M 166.765625 23.429688 L 255 23.429688 L 255 174 L 166.765625 174 Z M 166.765625 23.429688 " clip-rule="nonzero"/></clipPath><clipPath id="id12"><path d="M 166.765625 23.429688 L 265.765625 23.429688 L 265.765625 184.679688 L 166.765625 184.679688 Z M 166.765625 23.429688 " clip-rule="nonzero"/></clipPath><clipPath id="id13"><path d="M 179 98 L 330 98 L 330 99 L 179 99 Z M 179 98 " clip-rule="nonzero"/></clipPath><clipPath id="id14"><path d="M 254.871094 23.429688 L 335.484375 104.042969 L 254.871094 184.652344 L 174.261719 104.042969 Z M 254.871094 23.429688 " clip-rule="nonzero"/></clipPath><clipPath id="id15"><path d="M 179 29 L 330 29 L 330 179 L 179 179 Z M 179 29 " clip-rule="nonzero"/></clipPath><clipPath id="id16"><path d="M 254.871094 23.429688 L 335.484375 104.042969 L 254.871094 184.652344 L 174.261719 104.042969 Z M 254.871094 23.429688 " clip-rule="nonzero"/></clipPath></defs><g clip-path="url(#id1)"><path fill="#1d3660" d="M 136.25 23.433594 L 136.28125 23.464844 L 136.28125 23.433594 L 136.25 23.433594 M 48.578125 173.324219 L 48.578125 173.359375 L 48.609375 173.359375 L 48.578125 173.324219 " fill-opacity="1" fill-rule="nonzero"/></g><g clip-path="url(#id2)"><path fill="#1d3660" d="M 147.578125 34.785156 L 147.578125 173.359375 L 136.25 184.675781 L 59.753906 184.675781 L 48.609375 173.359375 L 48.578125 173.324219 L 48.578125 34.785156 L 59.753906 23.433594 L 136.25 23.433594 L 136.28125 23.464844 L 147.578125 34.785156 " fill-opacity="1" fill-rule="nonzero"/></g><g clip-path="url(#id3)"><path fill="#1d3660" d="M 136.25 199.476562 L 136.28125 199.507812 L 136.28125 199.476562 L 136.25 199.476562 M 48.578125 349.367188 L 48.578125 349.402344 L 48.609375 349.402344 L 48.578125 349.367188 " fill-opacity="1" fill-rule="nonzero"/></g><g clip-path="url(#id4)"><path fill="#1d3660" d="M 147.578125 210.828125 L 147.578125 349.402344 L 136.25 360.71875 L 59.753906 360.71875 L 48.609375 349.402344 L 48.578125 349.367188 L 48.578125 210.828125 L 59.753906 199.476562 L 136.25 199.476562 L 136.28125 199.507812 L 147.578125 210.828125 " fill-opacity="1" fill-rule="nonzero"/></g><g clip-path="url(#id5)"><path fill="#1d3660" d="M 254.441406 199.476562 L 254.472656 199.507812 L 254.472656 199.476562 L 254.441406 199.476562 M 166.765625 349.367188 L 166.765625 349.402344 L 166.796875 349.402344 L 166.765625 349.367188 " fill-opacity="1" fill-rule="nonzero"/></g><g clip-path="url(#id6)"><path fill="#1d3660" d="M 265.765625 210.828125 L 265.765625 349.402344 L 254.441406 360.71875 L 177.945312 360.71875 L 166.796875 349.402344 L 166.765625 349.367188 L 166.765625 210.828125 L 177.945312 199.476562 L 254.441406 199.476562 L 254.472656 199.507812 L 265.765625 210.828125 " fill-opacity="1" fill-rule="nonzero"/></g><g clip-path="url(#id7)"><g clip-path="url(#id8)"><path fill="#ff66c4" d="M 329.808594 274.410156 L 329.808594 274.441406 L 329.824219 274.425781 L 329.808594 274.410156 M 179.9375 274.410156 L 179.921875 274.425781 L 179.9375 274.441406 L 179.9375 274.410156 " fill-opacity="1" fill-rule="nonzero"/></g></g><g clip-path="url(#id9)"><g clip-path="url(#id10)"><path fill="#1d3660" d="M 329.808594 285.761719 L 260.53125 355.035156 L 249.199219 355.019531 L 179.9375 285.761719 L 179.9375 274.410156 L 249.199219 205.148438 L 260.546875 205.148438 L 329.808594 274.410156 L 329.808594 285.761719 " fill-opacity="1" fill-rule="nonzero"/></g></g><g clip-path="url(#id11)"><path fill="#1d3660" d="M 254.441406 23.433594 L 254.472656 23.464844 L 254.472656 23.433594 L 254.441406 23.433594 M 166.765625 173.324219 L 166.765625 173.359375 L 166.796875 173.359375 L 166.765625 173.324219 " fill-opacity="1" fill-rule="nonzero"/></g><g clip-path="url(#id12)"><path fill="#1d3660" d="M 265.765625 34.785156 L 265.765625 173.359375 L 254.441406 184.675781 L 177.945312 184.675781 L 166.796875 173.359375 L 166.765625 173.324219 L 166.765625 34.785156 L 177.945312 23.433594 L 254.441406 23.433594 L 254.472656 23.464844 L 265.765625 34.785156 " fill-opacity="1" fill-rule="nonzero"/></g><g clip-path="url(#id13)"><g clip-path="url(#id14)"><path fill="#ff66c4" d="M 329.808594 98.367188 L 329.808594 98.398438 L 329.824219 98.382812 L 329.808594 98.367188 M 179.9375 98.367188 L 179.921875 98.382812 L 179.9375 98.398438 L 179.9375 98.367188 " fill-opacity="1" fill-rule="nonzero"/></g></g><g clip-path="url(#id15)"><g clip-path="url(#id16)"><path fill="#1d3660" d="M 329.808594 109.714844 L 260.53125 178.992188 L 249.199219 178.976562 L 179.9375 109.714844 L 179.9375 98.367188 L 249.199219 29.105469 L 260.546875 29.105469 L 329.808594 98.367188 L 329.808594 109.714844 " fill-opacity="1" fill-rule="nonzero"/></g></g></svg>